<?xml version="1.0" ?>
<svg baseProfile="full" height="100%" style="display: block;margin-left: auto;margin-right: auto;" version="1.1" viewBox="0 0 1870 1210" width="100%" x="0" xmlns="http://www.w3.org/2000/svg" xmlns:ev="http://www.w3.org/2001/xml-events" xmlns:xlink="http://www.w3.org/1999/xlink" y="0">
	<defs/>
	<path d="M 0.0,0.0 L 0.0,1210.0 L 1870.0,1210.0 L 1870.0,0.0 L 0.0,0.0" fill="#5ba06c" stroke="none"/>
	<path class="g0_1" d="M 935.8,931.9 C 940.5,927.1999999999999 945.9,920.4 950.6999999999999,914.3 C 955.4,908.1999999999999 958.0999999999999,904.8 958.8,902.0999999999999 C 959.5,899.3999999999999 956.8,895.3 953.4,893.9999999999999 C 952.1999999999999,893.4999999999999 940.3,890.5999999999999 935.8,890.5999999999999 L 935.8,787.3 C 942.5999999999999,782.5999999999999 945.3,772.0999999999999 945.9,760.5 C 946.6,749.0 944.6,740.2 942.5,735.5 C 940.5,730.7 937.8,723.3 935.8,723.3 L 935.8,551.2 C 941.1999999999999,549.9000000000001 946.3,547.2 950.0,544.5 C 953.7,541.8 955.1,534.3 955.4,528.9 C 955.6999999999999,523.5 956.4,518.1 958.1,513.3 C 959.8000000000001,508.59999999999997 966.9,499.4 972.0,491.99999999999994 C 977.1,484.49999999999994 982.5,478.79999999999995 984.5,474.99999999999994 C 986.6,471.29999999999995 986.9,469.59999999999997 986.9,468.29999999999995 C 986.9,466.9 985.9,464.49999999999994 985.9,464.49999999999994 C 985.9,464.49999999999994 977.4,466.59999999999997 972.6999999999999,467.59999999999997 C 967.9,468.59999999999997 964.9,468.9 959.8,469.59999999999997 C 954.6999999999999,470.29999999999995 950.6999999999999,470.99999999999994 947.5999999999999,471.29999999999995 C 944.5999999999999,471.69999999999993 942.8999999999999,472.99999999999994 941.1999999999999,475.69999999999993 C 939.4999999999999,478.3999999999999 937.0999999999999,481.0999999999999 935.8,481.0999999999999 C 936.5999999999999,481.0999999999999 938.5,479.7999999999999 940.1999999999999,477.3999999999999 C 941.9,474.99999999999994 942.8,473.49999999999994 944.4999999999999,472.2999999999999 C 945.4999999999999,471.6999999999999 951.2999999999998,470.5999999999999 956.7999999999998,469.9999999999999 C 962.1999999999998,469.2999999999999 971.0999999999998,468.1999999999999 977.3999999999999,466.89999999999986 C 982.4999999999999,465.89999999999986 986.1999999999998,463.4999999999999 988.2999999999998,464.89999999999986 C 997.1999999999998,470.89999999999986 1011.2999999999998,478.09999999999985 1020.7999999999998,484.89999999999986 C 1030.2999999999997,491.59999999999985 1044.4999999999998,502.09999999999985 1053.2999999999997,503.4999999999999 C 1062.0999999999997,504.7999999999999 1069.4999999999998,501.0999999999999 1077.6999999999998,496.39999999999986 C 1085.7999999999997,491.59999999999985 1096.2999999999997,485.1999999999999 1107.1,479.79999999999984 C 1118.0,474.39999999999986 1132.5,466.59999999999985 1139.6,464.49999999999983 C 1146.1,462.6999999999998 1154.1999999999998,460.8999999999998 1155.6999999999998,460.49999999999983 L 1155.7999999999997,460.59999999999985 C 1164.6999999999998,458.59999999999985 1169.0999999999997,459.49999999999983 1174.8999999999996,459.09999999999985 C 1180.5999999999997,458.79999999999984 1192.5999999999997,458.49999999999983 1201.0999999999997,458.49999999999983 C 1209.5999999999997,458.49999999999983 1218.8999999999996,458.29999999999984 1225.2999999999997,457.79999999999984 C 1236.2999999999997,456.89999999999986 1239.8999999999996,454.99999999999983 1241.1999999999998,454.6999999999998 C 1244.2999999999997,454.0999999999998 1245.4999999999998,453.6999999999998 1246.7999999999997,453.49999999999983 C 1248.9999999999998,453.29999999999984 1251.6999999999998,452.99999999999983 1254.9999999999998,452.99999999999983 C 1258.1999999999998,452.99999999999983 1266.7999999999997,453.8999999999998 1269.4999999999998,454.8999999999998 C 1284.1999999999998,460.0999999999998 1298.7999999999997,465.1999999999998 1307.9999999999998,469.99999999999983 C 1317.0999999999997,474.6999999999998 1339.0999999999997,489.29999999999984 1347.5999999999997,497.09999999999985 C 1355.9999999999998,504.79999999999984 1372.2999999999997,520.3999999999999 1377.3999999999996,532.9999999999999 C 1382.4999999999995,545.4999999999999 1389.5999999999997,565.7999999999998 1391.8999999999996,582.0999999999999 C 1394.2999999999997,598.3 1392.9999999999995,622.6999999999999 1390.8999999999996,636.1999999999999 C 1388.3999999999996,653.0999999999999 1382.1999999999996,680.6999999999999 1377.6999999999996,692.0999999999999 C 1371.2999999999995,708.3999999999999 1360.0999999999997,724.3 1347.5999999999997,736.4999999999999 C 1334.9999999999998,748.6999999999999 1319.0999999999997,760.8999999999999 1306.8999999999996,767.9999999999999 C 1295.3999999999996,774.6999999999999 1276.7999999999997,780.1999999999999 1266.2999999999997,784.5999999999999 C 1256.3999999999996,788.6999999999999 1245.5999999999997,794.3999999999999 1239.1999999999998,798.0999999999999 C 1232.7999999999997,801.8999999999999 1223.6,806.8999999999999 1216.4999999999998,809.9999999999999 C 1209.3999999999999,812.9999999999999 1198.8999999999999,816.7999999999998 1188.3999999999999,820.7999999999998 C 1177.8999999999999,824.8999999999999 1165.3999999999999,828.8999999999999 1156.6,830.9999999999999 C 1147.8,832.9999999999999 1142.6999999999998,833.9999999999999 1136.3,834.9999999999999 C 1129.8,836.0999999999999 1125.6,836.4999999999999 1125.6,836.4999999999999 L 1125.3999999999999,836.4999999999999 C 1125.3999999999999,836.4999999999999 1119.3,839.7999999999998 1116.6,843.7999999999998 C 1113.8999999999999,847.8999999999999 1102.3999999999999,859.3999999999999 1095.6,869.5999999999998 C 1088.8,879.6999999999998 1078.6999999999998,898.6999999999998 1065.8,909.4999999999998 C 1052.8999999999999,920.3999999999997 1038.7,924.3999999999997 1027.8999999999999,927.1999999999998 C 1016.9999999999999,929.8999999999999 1006.1999999999998,930.4999999999998 998.0999999999999,929.8999999999999 C 989.9999999999999,929.1999999999998 979.8,930.4999999999999 973.6999999999999,933.8999999999999 C 967.5999999999999,937.2999999999998 960.1999999999999,938.6999999999998 954.6999999999999,939.9999999999999 C 949.3,941.3999999999999 941.9,942.0999999999999 935.8,942.0999999999999 L 935.8,931.9" fill="#9f86ba"/>
	<path class="g1_1" d="M 1390.9,857.4 C 1403.8000000000002,858.1 1418.7,859.4 1429.5,862.1 C 1440.4,864.8000000000001 1449.2,860.1 1456.0,850.6 C 1462.7,841.1 1468.1,833.0 1470.2,825.6 C 1472.2,818.1 1474.9,812.7 1477.6000000000001,809.3000000000001 C 1480.3000000000002,805.9000000000001 1485.8000000000002,789.7 1489.1000000000001,772.7 C 1492.5000000000002,755.8000000000001 1504.7,711.1 1505.4,684.7 C 1506.1000000000001,658.3000000000001 1499.3000000000002,623.7 1495.2,607.5 C 1491.2,591.2 1481.7,566.8 1474.9,556.7 C 1468.1000000000001,546.5 1467.5,533.6 1466.1000000000001,525.5 C 1464.8000000000002,517.4 1462.0000000000002,510.6 1459.3000000000002,505.2 C 1456.6000000000001,499.8 1451.2000000000003,494.3 1451.2000000000003,494.3 C 1451.2000000000003,494.3 1445.1000000000004,501.8 1442.4000000000003,509.3 C 1439.7000000000003,516.7 1434.3000000000004,543.8 1432.9000000000003,563.4 C 1431.6000000000004,583.1 1430.2000000000003,609.5 1426.8000000000004,629.1 C 1423.4000000000003,648.8000000000001 1419.4000000000003,683.3000000000001 1414.0000000000005,699.6 C 1408.5000000000005,715.8000000000001 1414.0000000000005,731.4 1416.7000000000005,741.6 C 1419.4000000000005,751.7 1419.4000000000005,776.1 1413.3000000000004,792.4 C 1407.2000000000005,808.6 1393.6000000000004,820.8 1381.4000000000003,828.3 C 1369.3000000000004,835.6999999999999 1360.4000000000003,842.5 1353.0000000000002,847.1999999999999 C 1345.5000000000002,851.9999999999999 1331.3000000000002,858.6999999999999 1331.3000000000002,858.6999999999999 L 1351.6000000000001,858.6999999999999 C 1360.4,858.6999999999999 1368.6000000000001,858.0999999999999 1376.0000000000002,858.0999999999999 C 1383.5000000000002,858.0999999999999 1390.9000000000003,857.3999999999999 1390.9000000000003,857.3999999999999 M 935.8,361.3 C 939.5,361.3 945.4,358.3 946.3,354.5 C 946.9,351.4 944.9,349.1 943.5999999999999,347.4 C 942.1999999999999,345.7 941.8999999999999,342.59999999999997 941.8999999999999,339.9 C 941.8999999999999,337.2 938.0999999999999,335.5 938.0999999999999,332.5 L 938.0999999999999,250.5 C 938.0999999999999,240.7 943.5999999999999,236.3 947.5999999999999,230.5 C 952.1999999999999,224.1 961.0999999999999,209.0 965.1999999999999,201.4 C 969.5999999999999,193.3 980.4999999999999,176.0 991.3,168.9 C 1002.0999999999999,161.8 1022.5,155.0 1036.0,156.4 C 1049.6,157.70000000000002 1059.7,161.1 1067.8,161.8 C 1076.0,162.5 1086.8,157.0 1092.8999999999999,156.4 C 1098.9999999999998,155.70000000000002 1107.1,157.0 1111.8999999999999,158.4 C 1116.6,159.8 1130.1999999999998,157.70000000000002 1141.6999999999998,155.70000000000002 C 1153.1999999999998,153.70000000000002 1189.7999999999997,153.00000000000003 1208.1,153.70000000000002 C 1226.3,154.3 1261.6,157.00000000000003 1283.8999999999999,161.10000000000002 C 1306.3,165.20000000000002 1346.8999999999999,176.70000000000002 1363.1999999999998,184.10000000000002 C 1379.3999999999999,191.60000000000002 1391.2999999999997,197.40000000000003 1396.2999999999997,201.70000000000002 C 1401.0999999999997,205.8 1401.0999999999997,212.60000000000002 1402.3999999999996,213.3 C 1403.7999999999997,213.9 1408.4999999999995,213.3 1413.9999999999995,213.3 C 1419.3999999999996,213.3 1440.3999999999996,223.4 1455.9999999999995,233.60000000000002 C 1471.4999999999995,243.70000000000002 1505.3999999999996,269.5 1522.9999999999995,285.1 C 1540.5999999999995,300.6 1550.0999999999995,310.1 1554.1999999999996,316.20000000000005 C 1558.1999999999996,322.30000000000007 1554.7999999999995,328.40000000000003 1556.8999999999996,331.1 C 1558.8999999999996,333.8 1569.0999999999997,334.5 1575.1999999999996,342.0 C 1581.2999999999995,349.4 1602.2999999999995,373.8 1607.6999999999996,386.7 C 1613.0999999999997,399.5 1623.1999999999996,415.8 1625.9999999999995,423.9 C 1628.6999999999996,432.0 1629.9999999999995,436.79999999999995 1628.6999999999996,441.5 C 1627.2999999999995,446.3 1628.6999999999996,450.3 1632.6999999999996,453.0 C 1636.7999999999995,455.7 1645.5999999999997,468.6 1648.9999999999995,480.8 C 1652.3999999999996,493.0 1657.7999999999995,517.4 1658.4999999999995,534.3 C 1659.0999999999995,551.1999999999999 1662.4999999999995,576.3 1662.4999999999995,593.1999999999999 C 1662.4999999999995,610.1999999999999 1663.1999999999996,631.1999999999999 1660.4999999999995,641.3 C 1657.7999999999995,651.5 1654.3999999999996,656.9 1648.9999999999995,661.5999999999999 C 1643.5999999999995,666.3999999999999 1641.4999999999995,673.1999999999999 1643.5999999999995,680.5999999999999 C 1645.5999999999995,688.0999999999999 1641.4999999999995,709.6999999999999 1636.7999999999995,721.8999999999999 C 1632.0999999999995,734.0999999999999 1627.2999999999995,750.3999999999999 1621.1999999999996,760.4999999999999 C 1615.0999999999997,770.6999999999999 1600.1999999999996,779.4999999999999 1592.0999999999997,782.1999999999999 C 1583.9999999999998,784.9 1573.7999999999997,786.9999999999999 1573.7999999999997,790.3 C 1573.7999999999997,793.6999999999999 1579.8999999999996,797.0999999999999 1585.2999999999997,799.8 C 1590.6999999999998,802.5 1600.1999999999998,807.3 1601.5999999999997,816.0999999999999 C 1602.8999999999996,824.8999999999999 1604.2999999999997,845.1999999999999 1600.1999999999996,862.8 C 1596.1999999999996,880.4 1584.5999999999997,911.5999999999999 1573.0999999999997,931.9 C 1561.5999999999997,952.1999999999999 1548.0999999999997,973.9 1516.8999999999996,990.8 C 1485.7999999999997,1007.8 1459.2999999999997,1005.0 1442.3999999999996,1005.0 C 1425.4999999999995,1005.0 1411.1999999999996,998.3 1399.6999999999996,987.4 C 1388.1999999999996,976.6 1383.4999999999995,980.0 1374.6999999999996,982.6999999999999 C 1365.8999999999996,985.4 1350.2999999999995,984.6999999999999 1335.3999999999996,983.4 C 1320.4999999999995,982.0 1300.7999999999997,979.3 1289.2999999999997,972.5 C 1276.8999999999996,965.2 1261.1999999999998,949.2 1251.3999999999996,940.0 C 1239.8999999999996,929.2 1233.7999999999997,924.4 1231.0999999999997,920.4 C 1228.3999999999996,916.3 1226.2999999999997,913.6 1225.6999999999996,910.9 C 1224.9999999999995,908.1999999999999 1219.5999999999997,906.8 1215.4999999999995,905.5 C 1211.3999999999996,904.1 1202.5999999999995,900.7 1195.1999999999996,896.0 C 1187.6999999999996,891.3 1179.5999999999997,886.5 1176.1999999999996,879.7 C 1172.7999999999995,873.0 1167.3999999999996,868.9000000000001 1161.9999999999995,866.9000000000001 C 1156.5999999999995,864.8000000000001 1148.3999999999996,860.8000000000001 1142.3999999999996,856.7 C 1136.2999999999997,852.7 1132.1999999999996,847.9000000000001 1130.1999999999996,844.5 C 1128.0999999999997,841.1 1125.5999999999997,836.6 1125.5999999999997,836.6 L 1125.5999999999997,836.5 C 1125.5999999999997,836.5 1129.9999999999998,836.1 1136.3999999999996,835.0 C 1142.8999999999996,833.9 1147.7999999999997,833.0 1156.5999999999997,831.0 C 1165.3999999999996,828.9 1177.8999999999996,824.9 1188.3999999999996,820.8 C 1198.8999999999996,816.8 1209.3999999999996,813.0 1216.4999999999995,810.0 C 1223.5999999999995,806.9 1232.7999999999995,801.9 1239.1999999999996,798.1 C 1245.5999999999997,794.4 1256.3999999999996,788.7 1266.2999999999995,784.6 C 1276.7999999999995,780.2 1295.3999999999994,774.7 1306.8999999999994,768.0 C 1319.0999999999995,760.9 1334.9999999999993,748.7 1347.5999999999995,736.5 C 1360.0999999999995,724.3 1371.2999999999995,708.4 1377.6999999999994,692.1 C 1382.1999999999994,680.7 1388.3999999999994,653.1 1390.8999999999994,636.2 C 1392.9999999999993,622.7 1394.2999999999995,598.3000000000001 1391.8999999999994,582.1 C 1389.5999999999995,565.8000000000001 1382.4999999999993,545.5 1377.3999999999994,533.0 C 1372.2999999999995,520.4 1355.9999999999993,504.8 1347.5999999999995,497.1 C 1339.0999999999995,489.3 1317.0999999999995,474.70000000000005 1307.9999999999995,470.0 C 1298.7999999999995,465.2 1283.8999999999996,460.1 1269.2999999999995,454.7 C 1262.1999999999996,452.09999999999997 1255.0999999999995,449.59999999999997 1252.0999999999995,448.59999999999997 C 1248.9999999999995,447.59999999999997 1246.9999999999995,445.59999999999997 1246.2999999999995,447.59999999999997 C 1245.5999999999995,449.59999999999997 1243.8999999999994,452.7 1240.8999999999994,454.7 C 1237.8999999999994,456.8 1231.7999999999995,457.09999999999997 1225.2999999999995,457.8 C 1218.8999999999994,458.5 1210.0999999999995,458.3 1201.5999999999995,458.3 C 1193.0999999999995,458.3 1180.5999999999995,458.8 1174.8999999999994,459.1 C 1169.0999999999995,459.5 1164.8999999999994,458.6 1155.9999999999993,460.6 L 1155.8999999999994,460.6 C 1155.8999999999994,460.6 1135.5999999999995,461.20000000000005 1129.4999999999993,461.5 C 1123.3999999999994,461.8 1117.5999999999992,463.9 1111.8999999999994,467.3 C 1106.0999999999995,470.6 1098.9999999999993,476.40000000000003 1093.1999999999994,478.40000000000003 C 1087.4999999999993,480.50000000000006 1077.2999999999993,480.8 1071.1999999999994,479.8 C 1065.0999999999995,478.8 1057.6999999999994,472.7 1054.9999999999993,469.6 C 1052.2999999999993,466.6 1050.5999999999992,460.8 1050.5999999999992,460.8 C 1050.5999999999992,460.8 1047.4999999999993,463.5 1043.7999999999993,465.6 C 1040.0999999999992,467.6 1033.9999999999993,469.3 1025.8999999999992,471.0 C 1017.6999999999991,472.7 1005.1999999999991,469.6 997.3999999999992,466.2 C 989.5999999999992,462.9 978.3999999999992,457.09999999999997 968.9999999999992,450.7 C 959.4999999999992,444.2 945.5999999999992,434.4 942.1999999999992,431.4 C 938.7999999999993,428.29999999999995 938.4999999999992,421.9 938.4999999999992,418.79999999999995 L 938.4999999999992,407.7 C 938.4999999999992,402.9 937.1999999999992,400.9 935.7999999999992,400.9 L 935.8,361.3" fill="#e9a241"/>
	<path class="g2_1" d="M 935.8,948.8 C 940.0,948.8 946.1999999999999,949.3 952.4,949.5999999999999 C 957.1,949.8999999999999 961.8,950.1999999999999 965.6,950.1999999999999 C 974.4,950.1999999999999 985.2,949.4999999999999 997.4,950.1999999999999 C 1009.6,950.9 1029.2,954.9 1042.8,956.3 C 1056.3,957.5999999999999 1074.6,963.0999999999999 1081.3999999999999,967.0999999999999 C 1088.1999999999998,971.1999999999999 1095.6,979.9999999999999 1096.9999999999998,986.8 C 1098.2999999999997,993.5 1094.2999999999997,999.5999999999999 1086.0999999999997,1000.3 C 1077.9999999999998,1001.0 1063.7999999999997,997.5999999999999 1052.2999999999997,996.1999999999999 C 1040.7999999999997,994.9 1023.0999999999997,991.4999999999999 1011.5999999999997,990.8 C 1000.0999999999997,990.0999999999999 987.8999999999996,991.5 975.6999999999997,991.5 L 935.8,991.5 L 935.8,948.8" fill="#fa0374"/>
	<path class="g3_1" d="M 935.8,942.1 C 929.6999999999999,942.1 922.3,941.4 916.9,940.0 C 911.5,938.7 904.0,937.3 897.9,933.9 C 891.8,930.5 881.6999999999999,929.1999999999999 873.5,929.9 C 865.4,930.5 854.6,929.9 843.7,927.1999999999999 C 832.9000000000001,924.4 818.7,920.4 805.8000000000001,909.4999999999999 C 792.9,898.7 782.8,879.7 776.0,869.6 C 769.2,859.4 757.7,847.9 755.0,843.8000000000001 C 752.3,839.8000000000001 746.2,836.5000000000001 746.2,836.5000000000001 L 746.0,836.5000000000001 C 746.0,836.5000000000001 741.8,836.1000000000001 735.4,835.0000000000001 C 728.9,834.0000000000001 723.9,833.0000000000001 715.0,831.0000000000001 C 706.2,828.9000000000001 693.7,824.9000000000001 683.2,820.8000000000001 C 672.7,816.8000000000001 662.2,813.0000000000001 655.1,810.0000000000001 C 648.0,806.9000000000001 638.8000000000001,801.9000000000001 632.4,798.1000000000001 C 626.0,794.4000000000001 615.1999999999999,788.7000000000002 605.3,784.6000000000001 C 594.8,780.2 576.2,774.7 564.7,768.0 C 552.5,760.9 536.6,748.7 524.0,736.5 C 511.5,724.3 500.3,708.4 493.9,692.1 C 489.4,680.7 483.2,653.1 480.7,636.2 C 478.7,622.7 477.3,598.3000000000001 479.7,582.1 C 482.09999999999997,565.8000000000001 489.2,545.5 494.2,533.0 C 499.3,520.4 515.6,504.8 524.0,497.1 C 532.5,489.3 554.5,474.70000000000005 563.7,470.0 C 572.8000000000001,465.2 587.4000000000001,460.1 602.1,454.9 C 604.8000000000001,453.9 613.5,453.0 616.7,453.0 C 619.9000000000001,453.0 622.7,453.3 624.8000000000001,453.5 C 626.2,453.7 627.3000000000001,454.1 630.4000000000001,454.7 C 631.8000000000001,455.0 635.3000000000001,456.9 646.3000000000001,457.8 C 652.8000000000001,458.3 662.0000000000001,458.5 670.5000000000001,458.5 C 679.0000000000001,458.5 691.0000000000001,458.8 696.8000000000001,459.1 C 702.5000000000001,459.5 706.9000000000001,458.6 715.8000000000001,460.6 L 716.0000000000001,460.5 C 717.5000000000001,460.9 725.6000000000001,462.7 732.0000000000001,464.5 C 739.1000000000001,466.6 753.7000000000002,474.4 764.5000000000001,479.8 C 775.3000000000001,485.2 785.8000000000001,491.6 794.0000000000001,496.40000000000003 C 802.1000000000001,501.1 809.5000000000001,504.8 818.3000000000001,503.50000000000006 C 827.1,502.1000000000001 841.4000000000001,491.6000000000001 850.9000000000001,484.90000000000003 C 860.3000000000001,478.1 874.4000000000001,470.90000000000003 883.4000000000001,464.90000000000003 C 885.4000000000001,463.50000000000006 889.1000000000001,465.90000000000003 894.2,466.90000000000003 C 900.5,468.20000000000005 909.4000000000001,469.3 914.9000000000001,470.00000000000006 C 920.3000000000001,470.6000000000001 926.1000000000001,471.70000000000005 927.1000000000001,472.30000000000007 C 928.8000000000002,473.50000000000006 929.8000000000002,475.00000000000006 931.5000000000001,477.4000000000001 C 933.1000000000001,479.80000000000007 935.0000000000001,481.1000000000001 935.8000000000001,481.1000000000001 C 934.5000000000001,481.1000000000001 932.1,478.4000000000001 930.4000000000001,475.7000000000001 C 928.7,473.0000000000001 927.0000000000001,471.7000000000001 924.0000000000001,471.3000000000001 C 921.0000000000001,471.0000000000001 916.9000000000001,470.3000000000001 911.8000000000001,469.60000000000014 C 906.7,469.0000000000001 903.7,468.60000000000014 898.9000000000001,467.60000000000014 C 894.2,466.60000000000014 885.7,464.5000000000001 885.7,464.5000000000001 C 885.7,464.5000000000001 884.7,466.9000000000001 884.7,468.3000000000001 C 884.7,469.60000000000014 885.1,471.3000000000001 887.1,475.0000000000001 C 889.1,478.8000000000001 894.5,484.5000000000001 899.6,492.0000000000001 C 904.7,499.4000000000001 911.8000000000001,508.60000000000014 913.5,513.3000000000001 C 915.2,518.1 915.9,523.5000000000001 916.2,528.9000000000001 C 916.6,534.3000000000001 917.9000000000001,541.8000000000001 921.6,544.5000000000001 C 925.4,547.2000000000002 930.4,549.9000000000001 935.8000000000001,551.2000000000002 L 935.8000000000001,723.3 C 933.8000000000001,723.3 931.1,730.6999999999999 929.1,735.5 C 927.0,740.2 925.0,749.0 925.7,760.5 C 926.4000000000001,772.1 929.0,782.6 935.8000000000001,787.3 L 935.8000000000001,890.6 C 931.3000000000001,890.6 919.4000000000001,893.5 918.2,894.0 C 914.9000000000001,895.3 912.1,899.4 912.8000000000001,902.1 C 913.5000000000001,904.8000000000001 916.2,908.2 921.0000000000001,914.3000000000001 C 925.7000000000002,920.4000000000001 931.1000000000001,927.2 935.8000000000001,931.9000000000001 L 935.8,942.1" fill="#9cdc1a"/>
</svg>
